<?xml version="1.0" encoding="UTF-8"?>
<svg version="1.1" xmlns="http://www.w3.org/2000/svg" width="512" height="512">
<path d="M0 0 C1.18144813 -0.00525911 1.18144813 -0.00525911 2.3867639 -0.01062447 C5.03011036 -0.01993984 7.67323658 -0.0150148 10.31659222 -0.01015663 C12.22926551 -0.01389282 14.14193728 -0.01849421 16.05460662 -0.02388728 C21.31402272 -0.03613653 26.5733753 -0.03585454 31.83280241 -0.03349853 C37.50368872 -0.03309085 43.17455454 -0.04412479 48.84543133 -0.05361366 C59.95693337 -0.07023502 71.06841419 -0.07572372 82.17992762 -0.07683842 C91.21050843 -0.07778832 100.24108222 -0.08189572 109.2716608 -0.08823967 C130.70148586 -0.10298798 152.131304 -0.11528908 173.56113434 -0.11424255 C174.58912049 -0.11419582 174.58912049 -0.11419582 175.63787403 -0.11414814 C179.11137628 -0.11398192 182.58487852 -0.11378384 186.05838076 -0.11357872 C187.09315455 -0.11351889 187.09315455 -0.11351889 188.14883285 -0.11345784 C189.54387597 -0.11337697 190.93891909 -0.11329337 192.33396221 -0.11320706 C214.03894831 -0.11198153 235.74387192 -0.12699516 257.44884014 -0.15435219 C281.83467885 -0.18507553 306.22046609 -0.2022592 330.60632724 -0.20042574 C343.5180156 -0.19976133 356.4296335 -0.20527635 369.34130573 -0.22678185 C380.33381605 -0.24497329 391.32622395 -0.24935768 402.31874279 -0.235763 C407.92793424 -0.2292232 413.53692908 -0.2291528 419.14610195 -0.2464695 C424.28137772 -0.26216023 429.41630033 -0.25937737 434.55156728 -0.24190123 C436.40887246 -0.23882254 438.26620374 -0.24249634 440.12347815 -0.25362138 C457.84103055 -0.35271673 457.84103055 -0.35271673 465.04039288 4.25726891 C466.01135732 4.8246685 466.01135732 4.8246685 467.00193721 5.40353072 C473.85684392 9.53897336 478.01885493 16.66538542 480.04039288 24.25726891 C480.33884284 27.86376926 480.33416135 31.45952608 480.33092022 35.07684898 C480.34099606 36.69507813 480.34099606 36.69507813 480.35127544 38.34599876 C480.37024642 41.90631297 480.37417925 45.46643857 480.37633038 49.02680016 C480.38275899 51.50773254 480.3894874 53.98866416 480.39650249 56.46959496 C480.40847307 61.66877563 480.41218354 66.86788987 480.41099834 72.06708336 C480.41079519 78.71827431 480.43809497 85.36888812 480.47254276 92.0199995 C480.49481699 97.14422614 480.49883571 102.26835 480.49777889 107.39262009 C480.50013413 109.84414391 480.50895321 112.29567059 480.52444363 114.74714661 C480.5441129 118.18156771 480.53826093 121.61506824 480.52623272 125.04950523 C480.53747173 126.0550042 480.54871075 127.06050316 480.56029034 128.09647179 C480.47957777 137.19901764 477.3794988 145.56599043 471.04039288 152.25726891 C463.85617234 158.03125356 457.3451273 160.56698694 448.08078575 160.51453781 C446.89933762 160.51979692 446.89933762 160.51979692 445.69402185 160.52516228 C443.05067539 160.53447765 440.40754917 160.52955261 437.76419353 160.52469444 C435.85152024 160.52843063 433.93884847 160.53303202 432.02617913 160.53842509 C426.76676303 160.55067434 421.50741045 160.55039235 416.24798334 160.54803634 C410.57709703 160.54762866 404.90623121 160.55866261 399.23535442 160.56815147 C388.12385238 160.58477283 377.01237156 160.59026153 365.90085813 160.59137623 C356.87027732 160.59232613 347.83970353 160.59643353 338.80912495 160.60277748 C317.37929989 160.61752579 295.94948175 160.62982689 274.51965141 160.62878036 C273.83432731 160.62874921 273.14900322 160.62871805 272.44291172 160.62868595 C268.96940948 160.62851973 265.49590723 160.62832165 262.02240499 160.62811653 C261.3325558 160.62807664 260.64270661 160.62803675 259.9319529 160.62799565 C258.53690978 160.62791478 257.14186666 160.62783118 255.74682354 160.62774487 C234.04183744 160.62651934 212.33691383 160.64153298 190.63194561 160.66889 C166.2461069 160.69961334 141.86031966 160.71679701 117.47445852 160.71496356 C104.56277015 160.71429914 91.65115225 160.71981416 78.73948002 160.74131966 C67.7469697 160.7595111 56.7545618 160.76389549 45.76204296 160.75030081 C40.15285151 160.74376101 34.54385667 160.74369062 28.9346838 160.76100731 C23.79940803 160.77669804 18.66448542 160.77391518 13.52921847 160.75643905 C11.67191329 160.75336035 9.81458201 160.75703415 7.9573076 160.7681592 C-9.7602448 160.86725454 -9.7602448 160.86725454 -16.95960712 156.25726891 C-17.60691675 155.87900251 -18.25422639 155.50073611 -18.92115146 155.11100709 C-25.77605817 150.97556446 -29.93806918 143.84915239 -31.95960712 136.25726891 C-32.25805708 132.65076855 -32.2533756 129.05501173 -32.25013447 125.43768883 C-32.25685169 124.3588694 -32.26356892 123.28004997 -32.27048969 122.16853905 C-32.28946067 118.60822484 -32.2933935 115.04809924 -32.29554462 111.48773766 C-32.30197324 109.00680527 -32.30870165 106.52587365 -32.31571674 104.04494286 C-32.32768732 98.84576218 -32.33139779 93.64664794 -32.33021259 88.44745445 C-32.33000944 81.7962635 -32.35730922 75.14564969 -32.39175701 68.49453831 C-32.41403124 63.37031167 -32.41804996 58.24618781 -32.41699314 53.12191772 C-32.41934837 50.6703939 -32.42816745 48.21886722 -32.44365788 45.7673912 C-32.46332715 42.3329701 -32.45747518 38.89946957 -32.44544697 35.46503258 C-32.45668598 34.45953362 -32.467925 33.45403465 -32.47950459 32.41806602 C-32.39879202 23.31552018 -29.29871305 14.94854738 -22.95960712 8.25726891 C-15.77538659 2.48328425 -9.26434154 -0.05244913 0 0 Z M-11.89710712 22.00726891 C-15.9116053 28.33314481 -16.25522254 34.46045993 -16.23426533 41.72162437 C-16.23937626 42.6445327 -16.24448719 43.56744102 -16.249753 44.51831627 C-16.26359506 47.55376322 -16.26269621 50.58898174 -16.26038837 53.62445641 C-16.26427838 55.74523566 -16.26861368 57.86601413 -16.2733736 59.98679161 C-16.28082433 64.42674856 -16.28055292 68.86662598 -16.27528095 73.30658531 C-16.26948922 78.98126194 -16.28641593 84.65561188 -16.30962563 90.33023453 C-16.32439595 94.70899911 -16.32523014 99.08768563 -16.3221159 103.46647072 C-16.32262749 105.55793594 -16.3278347 107.64940571 -16.33792782 109.74084663 C-16.35033827 112.67215181 -16.34347278 115.60282839 -16.33192158 118.53412437 C-16.33956532 119.38844048 -16.34720905 120.24275658 -16.35508442 121.12296104 C-16.30211021 127.24043636 -15.63603631 133.90974589 -11.68469429 138.85185623 C-6.1119433 143.92526349 0.65399122 144.55722987 7.8731699 144.5117445 C9.01582783 144.51655422 9.01582783 144.51655422 10.18156976 144.5214611 C12.73093198 144.52975408 15.28005884 144.52383929 17.82942486 144.51796532 C19.67696415 144.52098632 21.52450218 144.52487554 23.37203801 144.52955788 C28.44677364 144.53985322 33.52143874 144.53765214 38.5961802 144.53337729 C44.07004419 144.53091286 49.54389108 144.53992071 55.01774883 144.54741478 C65.74075913 144.56017165 76.4637444 144.56195424 87.18676101 144.55961452 C95.90171882 144.55783231 104.61666903 144.5595789 113.33162594 144.56383896 C114.57144084 144.56443415 115.81125574 144.56502934 117.08864079 144.56564256 C119.60723447 144.5668543 122.12582815 144.56806843 124.64442183 144.56928494 C141.55789605 144.57707341 158.47136715 144.5809904 175.38484287 144.57696819 C176.04617519 144.57681182 176.70750751 144.57665544 177.3888802 144.57649433 C180.74072684 144.57568855 184.09257346 144.57484278 187.44442008 144.57398102 C188.44293981 144.57372439 188.44293981 144.57372439 189.46163165 144.57346258 C190.80779767 144.57311592 192.15396369 144.57276739 193.50012971 144.57241699 C214.44667288 144.56705974 235.39317396 144.57499056 256.33970928 144.59345055 C279.87698434 144.61416947 303.41423927 144.62486238 326.95152485 144.62087506 C339.41270024 144.61896141 351.87383726 144.62146654 364.33500576 144.6355896 C374.94320399 144.6474908 385.55134026 144.64892243 396.15953933 144.63679943 C401.57225545 144.63090193 406.98485816 144.62983545 412.3975668 144.64180183 C417.35326378 144.65263058 422.30875225 144.64959308 427.26443936 144.63554015 C429.0564375 144.63288493 430.84845183 144.63528557 432.64043413 144.64327601 C446.37690208 145.22714253 446.37690208 145.22714253 458.60248077 139.98236352 C464.20006504 133.97909629 464.33733151 126.51254089 464.31505108 118.79291344 C464.32016201 117.87000511 464.32527294 116.94709679 464.33053875 115.99622154 C464.34438081 112.96077459 464.34348196 109.92555608 464.34117413 106.89008141 C464.34506413 104.76930215 464.34939943 102.64852368 464.35415936 100.5277462 C464.36161008 96.08778925 464.36133868 91.64791183 464.3560667 87.2079525 C464.35027497 81.53327587 464.36720168 75.85892593 464.39041138 70.18430328 C464.4051817 65.8055387 464.40601589 61.42685218 464.40290165 57.04806709 C464.40341324 54.95660188 464.40862045 52.8651321 464.41871357 50.77369118 C464.43112402 47.842386 464.42425853 44.91170942 464.41270733 41.98041344 C464.42035107 41.12609734 464.4279948 40.27178123 464.43587017 39.39157677 C464.38289596 33.27410145 463.71682206 26.60479192 459.76548004 21.66268158 C454.19272905 16.58927432 447.42679453 15.95730794 440.20761585 16.00279331 C439.4458439 15.99958683 438.68407195 15.99638036 437.899216 15.99307671 C435.34985377 15.98478373 432.80072691 15.99069852 430.25136089 15.99657249 C428.40382161 15.99355149 426.55628357 15.98966227 424.70874774 15.98497993 C419.63401211 15.9746846 414.55934701 15.97688567 409.48460555 15.98116052 C404.01074156 15.98362495 398.53689467 15.9746171 393.06303692 15.96712303 C382.34002662 15.95436616 371.61704135 15.95258357 360.89402474 15.95492329 C352.17906693 15.9567055 343.46411672 15.95495891 334.74915981 15.95069885 C333.50934491 15.95010366 332.26953001 15.94950847 330.99214496 15.94889525 C328.47355128 15.94768351 325.9549576 15.94646938 323.43636392 15.94525287 C306.5228897 15.9374644 289.6094186 15.93354742 272.69594288 15.93756962 C271.7039444 15.93780418 271.7039444 15.93780418 270.69190555 15.93804348 C267.34005891 15.93884926 263.98821229 15.93969503 260.63636567 15.94055679 C259.97068585 15.94072787 259.30500604 15.94089896 258.6191541 15.94107523 C257.27298808 15.94142189 255.92682206 15.94177042 254.58065604 15.94212082 C233.63411287 15.94747807 212.68761179 15.93954725 191.74107647 15.92108727 C168.20380141 15.90036834 144.66654649 15.88967543 121.1292609 15.89366275 C108.66808552 15.8955764 96.20694849 15.89307127 83.74577999 15.87894821 C73.13758176 15.86704701 62.52944549 15.86561538 51.92124642 15.87773838 C46.5085303 15.88363588 41.09592759 15.88470236 35.68321896 15.87273598 C30.72752197 15.86190723 25.7720335 15.86494473 20.81634639 15.87899766 C19.02434825 15.88165288 17.23233392 15.87925224 15.44035162 15.8712618 C0.58466192 15.223182 0.58466192 15.223182 -11.89710712 22.00726891 Z " fill="#FFFFFF" transform="translate(31.959607124328613,351.74273109436035)"/>
<path d="M0 0 C1.18144813 -0.00525911 1.18144813 -0.00525911 2.3867639 -0.01062447 C5.03011036 -0.01993984 7.67323658 -0.0150148 10.31659222 -0.01015663 C12.22926551 -0.01389282 14.14193728 -0.01849421 16.05460662 -0.02388728 C21.31402272 -0.03613653 26.5733753 -0.03585454 31.83280241 -0.03349853 C37.50368872 -0.03309085 43.17455454 -0.04412479 48.84543133 -0.05361366 C59.95693337 -0.07023502 71.06841419 -0.07572372 82.17992762 -0.07683842 C91.21050843 -0.07778832 100.24108222 -0.08189572 109.2716608 -0.08823967 C130.70148586 -0.10298798 152.131304 -0.11528908 173.56113434 -0.11424255 C174.58912049 -0.11419582 174.58912049 -0.11419582 175.63787403 -0.11414814 C179.11137628 -0.11398192 182.58487852 -0.11378384 186.05838076 -0.11357872 C187.09315455 -0.11351889 187.09315455 -0.11351889 188.14883285 -0.11345784 C189.54387597 -0.11337697 190.93891909 -0.11329337 192.33396221 -0.11320706 C214.03894831 -0.11198153 235.74387192 -0.12699516 257.44884014 -0.15435219 C281.83467885 -0.18507553 306.22046609 -0.2022592 330.60632724 -0.20042574 C343.5180156 -0.19976133 356.4296335 -0.20527635 369.34130573 -0.22678185 C380.33381605 -0.24497329 391.32622395 -0.24935768 402.31874279 -0.235763 C407.92793424 -0.2292232 413.53692908 -0.2291528 419.14610195 -0.2464695 C424.28137772 -0.26216023 429.41630033 -0.25937737 434.55156728 -0.24190123 C436.40887246 -0.23882254 438.26620374 -0.24249634 440.12347815 -0.25362138 C457.84103055 -0.35271673 457.84103055 -0.35271673 465.04039288 4.25726891 C466.01135732 4.8246685 466.01135732 4.8246685 467.00193721 5.40353072 C473.85684392 9.53897336 478.01885493 16.66538542 480.04039288 24.25726891 C480.33884284 27.86376926 480.33416135 31.45952608 480.33092022 35.07684898 C480.34099606 36.69507813 480.34099606 36.69507813 480.35127544 38.34599876 C480.37024642 41.90631297 480.37417925 45.46643857 480.37633038 49.02680016 C480.38275899 51.50773254 480.3894874 53.98866416 480.39650249 56.46959496 C480.40847307 61.66877563 480.41218354 66.86788987 480.41099834 72.06708336 C480.41079519 78.71827431 480.43809497 85.36888812 480.47254276 92.0199995 C480.49481699 97.14422614 480.49883571 102.26835 480.49777889 107.39262009 C480.50013413 109.84414391 480.50895321 112.29567059 480.52444363 114.74714661 C480.5441129 118.18156771 480.53826093 121.61506824 480.52623272 125.04950523 C480.53747173 126.0550042 480.54871075 127.06050316 480.56029034 128.09647179 C480.47957777 137.19901764 477.3794988 145.56599043 471.04039288 152.25726891 C463.85617234 158.03125356 457.3451273 160.56698694 448.08078575 160.51453781 C446.89933762 160.51979692 446.89933762 160.51979692 445.69402185 160.52516228 C443.05067539 160.53447765 440.40754917 160.52955261 437.76419353 160.52469444 C435.85152024 160.52843063 433.93884847 160.53303202 432.02617913 160.53842509 C426.76676303 160.55067434 421.50741045 160.55039235 416.24798334 160.54803634 C410.57709703 160.54762866 404.90623121 160.55866261 399.23535442 160.56815147 C388.12385238 160.58477283 377.01237156 160.59026153 365.90085813 160.59137623 C356.87027732 160.59232613 347.83970353 160.59643353 338.80912495 160.60277748 C317.37929989 160.61752579 295.94948175 160.62982689 274.51965141 160.62878036 C273.83432731 160.62874921 273.14900322 160.62871805 272.44291172 160.62868595 C268.96940948 160.62851973 265.49590723 160.62832165 262.02240499 160.62811653 C261.3325558 160.62807664 260.64270661 160.62803675 259.9319529 160.62799565 C258.53690978 160.62791478 257.14186666 160.62783118 255.74682354 160.62774487 C234.04183744 160.62651934 212.33691383 160.64153298 190.63194561 160.66889 C166.2461069 160.69961334 141.86031966 160.71679701 117.47445852 160.71496356 C104.56277015 160.71429914 91.65115225 160.71981416 78.73948002 160.74131966 C67.7469697 160.7595111 56.7545618 160.76389549 45.76204296 160.75030081 C40.15285151 160.74376101 34.54385667 160.74369062 28.9346838 160.76100731 C23.79940803 160.77669804 18.66448542 160.77391518 13.52921847 160.75643905 C11.67191329 160.75336035 9.81458201 160.75703415 7.9573076 160.7681592 C-9.7602448 160.86725454 -9.7602448 160.86725454 -16.95960712 156.25726891 C-17.60691675 155.87900251 -18.25422639 155.50073611 -18.92115146 155.11100709 C-25.77605817 150.97556446 -29.93806918 143.84915239 -31.95960712 136.25726891 C-32.25805708 132.65076855 -32.2533756 129.05501173 -32.25013447 125.43768883 C-32.25685169 124.3588694 -32.26356892 123.28004997 -32.27048969 122.16853905 C-32.28946067 118.60822484 -32.2933935 115.04809924 -32.29554462 111.48773766 C-32.30197324 109.00680527 -32.30870165 106.52587365 -32.31571674 104.04494286 C-32.32768732 98.84576218 -32.33139779 93.64664794 -32.33021259 88.44745445 C-32.33000944 81.7962635 -32.35730922 75.14564969 -32.39175701 68.49453831 C-32.41403124 63.37031167 -32.41804996 58.24618781 -32.41699314 53.12191772 C-32.41934837 50.6703939 -32.42816745 48.21886722 -32.44365788 45.7673912 C-32.46332715 42.3329701 -32.45747518 38.89946957 -32.44544697 35.46503258 C-32.45668598 34.45953362 -32.467925 33.45403465 -32.47950459 32.41806602 C-32.39879202 23.31552018 -29.29871305 14.94854738 -22.95960712 8.25726891 C-15.77538659 2.48328425 -9.26434154 -0.05244913 0 0 Z M-11.89710712 22.00726891 C-15.9116053 28.33314481 -16.25522254 34.46045993 -16.23426533 41.72162437 C-16.23937626 42.6445327 -16.24448719 43.56744102 -16.249753 44.51831627 C-16.26359506 47.55376322 -16.26269621 50.58898174 -16.26038837 53.62445641 C-16.26427838 55.74523566 -16.26861368 57.86601413 -16.2733736 59.98679161 C-16.28082433 64.42674856 -16.28055292 68.86662598 -16.27528095 73.30658531 C-16.26948922 78.98126194 -16.28641593 84.65561188 -16.30962563 90.33023453 C-16.32439595 94.70899911 -16.32523014 99.08768563 -16.3221159 103.46647072 C-16.32262749 105.55793594 -16.3278347 107.64940571 -16.33792782 109.74084663 C-16.35033827 112.67215181 -16.34347278 115.60282839 -16.33192158 118.53412437 C-16.33956532 119.38844048 -16.34720905 120.24275658 -16.35508442 121.12296104 C-16.30211021 127.24043636 -15.63603631 133.90974589 -11.68469429 138.85185623 C-6.1119433 143.92526349 0.65399122 144.55722987 7.8731699 144.5117445 C9.01582783 144.51655422 9.01582783 144.51655422 10.18156976 144.5214611 C12.73093198 144.52975408 15.28005884 144.52383929 17.82942486 144.51796532 C19.67696415 144.52098632 21.52450218 144.52487554 23.37203801 144.52955788 C28.44677364 144.53985322 33.52143874 144.53765214 38.5961802 144.53337729 C44.07004419 144.53091286 49.54389108 144.53992071 55.01774883 144.54741478 C65.74075913 144.56017165 76.4637444 144.56195424 87.18676101 144.55961452 C95.90171882 144.55783231 104.61666903 144.5595789 113.33162594 144.56383896 C114.57144084 144.56443415 115.81125574 144.56502934 117.08864079 144.56564256 C119.60723447 144.5668543 122.12582815 144.56806843 124.64442183 144.56928494 C141.55789605 144.57707341 158.47136715 144.5809904 175.38484287 144.57696819 C176.04617519 144.57681182 176.70750751 144.57665544 177.3888802 144.57649433 C180.74072684 144.57568855 184.09257346 144.57484278 187.44442008 144.57398102 C188.44293981 144.57372439 188.44293981 144.57372439 189.46163165 144.57346258 C190.80779767 144.57311592 192.15396369 144.57276739 193.50012971 144.57241699 C214.44667288 144.56705974 235.39317396 144.57499056 256.33970928 144.59345055 C279.87698434 144.61416947 303.41423927 144.62486238 326.95152485 144.62087506 C339.41270024 144.61896141 351.87383726 144.62146654 364.33500576 144.6355896 C374.94320399 144.6474908 385.55134026 144.64892243 396.15953933 144.63679943 C401.57225545 144.63090193 406.98485816 144.62983545 412.3975668 144.64180183 C417.35326378 144.65263058 422.30875225 144.64959308 427.26443936 144.63554015 C429.0564375 144.63288493 430.84845183 144.63528557 432.64043413 144.64327601 C446.37690208 145.22714253 446.37690208 145.22714253 458.60248077 139.98236352 C464.20006504 133.97909629 464.33733151 126.51254089 464.31505108 118.79291344 C464.32016201 117.87000511 464.32527294 116.94709679 464.33053875 115.99622154 C464.34438081 112.96077459 464.34348196 109.92555608 464.34117413 106.89008141 C464.34506413 104.76930215 464.34939943 102.64852368 464.35415936 100.5277462 C464.36161008 96.08778925 464.36133868 91.64791183 464.3560667 87.2079525 C464.35027497 81.53327587 464.36720168 75.85892593 464.39041138 70.18430328 C464.4051817 65.8055387 464.40601589 61.42685218 464.40290165 57.04806709 C464.40341324 54.95660188 464.40862045 52.8651321 464.41871357 50.77369118 C464.43112402 47.842386 464.42425853 44.91170942 464.41270733 41.98041344 C464.42035107 41.12609734 464.4279948 40.27178123 464.43587017 39.39157677 C464.38289596 33.27410145 463.71682206 26.60479192 459.76548004 21.66268158 C454.19272905 16.58927432 447.42679453 15.95730794 440.20761585 16.00279331 C439.4458439 15.99958683 438.68407195 15.99638036 437.899216 15.99307671 C435.34985377 15.98478373 432.80072691 15.99069852 430.25136089 15.99657249 C428.40382161 15.99355149 426.55628357 15.98966227 424.70874774 15.98497993 C419.63401211 15.9746846 414.55934701 15.97688567 409.48460555 15.98116052 C404.01074156 15.98362495 398.53689467 15.9746171 393.06303692 15.96712303 C382.34002662 15.95436616 371.61704135 15.95258357 360.89402474 15.95492329 C352.17906693 15.9567055 343.46411672 15.95495891 334.74915981 15.95069885 C333.50934491 15.95010366 332.26953001 15.94950847 330.99214496 15.94889525 C328.47355128 15.94768351 325.9549576 15.94646938 323.43636392 15.94525287 C306.5228897 15.9374644 289.6094186 15.93354742 272.69594288 15.93756962 C271.7039444 15.93780418 271.7039444 15.93780418 270.69190555 15.93804348 C267.34005891 15.93884926 263.98821229 15.93969503 260.63636567 15.94055679 C259.97068585 15.94072787 259.30500604 15.94089896 258.6191541 15.94107523 C257.27298808 15.94142189 255.92682206 15.94177042 254.58065604 15.94212082 C233.63411287 15.94747807 212.68761179 15.93954725 191.74107647 15.92108727 C168.20380141 15.90036834 144.66654649 15.88967543 121.1292609 15.89366275 C108.66808552 15.8955764 96.20694849 15.89307127 83.74577999 15.87894821 C73.13758176 15.86704701 62.52944549 15.86561538 51.92124642 15.87773838 C46.5085303 15.88363588 41.09592759 15.88470236 35.68321896 15.87273598 C30.72752197 15.86190723 25.7720335 15.86494473 20.81634639 15.87899766 C19.02434825 15.88165288 17.23233392 15.87925224 15.44035162 15.8712618 C0.58466192 15.223182 0.58466192 15.223182 -11.89710712 22.00726891 Z " fill="#FFFFFF" transform="translate(31.959607124328613,175.74273109436035)"/>
<path d="M0 0 C1.18144813 -0.00525911 1.18144813 -0.00525911 2.3867639 -0.01062447 C5.03011036 -0.01993984 7.67323658 -0.0150148 10.31659222 -0.01015663 C12.22926551 -0.01389282 14.14193728 -0.01849421 16.05460662 -0.02388728 C21.31402272 -0.03613653 26.5733753 -0.03585454 31.83280241 -0.03349853 C37.50368872 -0.03309085 43.17455454 -0.04412479 48.84543133 -0.05361366 C59.95693337 -0.07023502 71.06841419 -0.07572372 82.17992762 -0.07683842 C91.21050843 -0.07778832 100.24108222 -0.08189572 109.2716608 -0.08823967 C130.70148586 -0.10298798 152.131304 -0.11528908 173.56113434 -0.11424255 C174.58912049 -0.11419582 174.58912049 -0.11419582 175.63787403 -0.11414814 C179.11137628 -0.11398192 182.58487852 -0.11378384 186.05838076 -0.11357872 C187.09315455 -0.11351889 187.09315455 -0.11351889 188.14883285 -0.11345784 C189.54387597 -0.11337697 190.93891909 -0.11329337 192.33396221 -0.11320706 C214.03894831 -0.11198153 235.74387192 -0.12699516 257.44884014 -0.15435219 C281.83467885 -0.18507553 306.22046609 -0.2022592 330.60632724 -0.20042574 C343.5180156 -0.19976133 356.4296335 -0.20527635 369.34130573 -0.22678185 C380.33381605 -0.24497329 391.32622395 -0.24935768 402.31874279 -0.235763 C407.92793424 -0.2292232 413.53692908 -0.2291528 419.14610195 -0.2464695 C424.28137772 -0.26216023 429.41630033 -0.25937737 434.55156728 -0.24190123 C436.40887246 -0.23882254 438.26620374 -0.24249634 440.12347815 -0.25362138 C457.84103055 -0.35271673 457.84103055 -0.35271673 465.04039288 4.25726891 C466.01135732 4.8246685 466.01135732 4.8246685 467.00193721 5.40353072 C473.85684392 9.53897336 478.01885493 16.66538542 480.04039288 24.25726891 C480.33884284 27.86376926 480.33416135 31.45952608 480.33092022 35.07684898 C480.34099606 36.69507812 480.34099606 36.69507812 480.35127544 38.34599876 C480.37024642 41.90631297 480.37417925 45.46643857 480.37633038 49.02680016 C480.38275899 51.50773254 480.3894874 53.98866416 480.39650249 56.46959496 C480.40847307 61.66877563 480.41218354 66.86788987 480.41099834 72.06708336 C480.41079519 78.71827431 480.43809497 85.36888812 480.47254276 92.0199995 C480.49481699 97.14422614 480.49883571 102.26835 480.49777889 107.39262009 C480.50013413 109.84414391 480.50895321 112.29567059 480.52444363 114.74714661 C480.5441129 118.18156771 480.53826093 121.61506824 480.52623272 125.04950523 C480.53747173 126.0550042 480.54871075 127.06050316 480.56029034 128.09647179 C480.47957777 137.19901764 477.3794988 145.56599043 471.04039288 152.25726891 C463.85617234 158.03125356 457.3451273 160.56698694 448.08078575 160.51453781 C446.89933762 160.51979692 446.89933762 160.51979692 445.69402185 160.52516228 C443.05067539 160.53447765 440.40754917 160.52955261 437.76419353 160.52469444 C435.85152024 160.52843063 433.93884847 160.53303202 432.02617913 160.53842509 C426.76676303 160.55067434 421.50741045 160.55039235 416.24798334 160.54803634 C410.57709703 160.54762866 404.90623121 160.55866261 399.23535442 160.56815147 C388.12385238 160.58477283 377.01237156 160.59026153 365.90085813 160.59137623 C356.87027732 160.59232613 347.83970353 160.59643353 338.80912495 160.60277748 C317.37929989 160.61752579 295.94948175 160.62982689 274.51965141 160.62878036 C273.83432731 160.62874921 273.14900322 160.62871805 272.44291172 160.62868595 C268.96940948 160.62851973 265.49590723 160.62832165 262.02240499 160.62811653 C261.3325558 160.62807664 260.64270661 160.62803675 259.9319529 160.62799565 C258.53690978 160.62791478 257.14186666 160.62783118 255.74682354 160.62774487 C234.04183744 160.62651934 212.33691383 160.64153298 190.63194561 160.66889 C166.2461069 160.69961334 141.86031966 160.71679701 117.47445852 160.71496356 C104.56277015 160.71429914 91.65115225 160.71981416 78.73948002 160.74131966 C67.7469697 160.7595111 56.7545618 160.76389549 45.76204296 160.75030081 C40.15285151 160.74376101 34.54385667 160.74369062 28.9346838 160.76100731 C23.79940803 160.77669804 18.66448542 160.77391518 13.52921847 160.75643905 C11.67191329 160.75336035 9.81458201 160.75703415 7.9573076 160.7681592 C-9.7602448 160.86725454 -9.7602448 160.86725454 -16.95960712 156.25726891 C-17.60691675 155.87900251 -18.25422639 155.50073611 -18.92115146 155.11100709 C-25.77605817 150.97556446 -29.93806918 143.84915239 -31.95960712 136.25726891 C-32.25805708 132.65076855 -32.2533756 129.05501173 -32.25013447 125.43768883 C-32.25685169 124.3588694 -32.26356892 123.28004997 -32.27048969 122.16853905 C-32.28946067 118.60822484 -32.2933935 115.04809924 -32.29554462 111.48773766 C-32.30197324 109.00680527 -32.30870165 106.52587365 -32.31571674 104.04494286 C-32.32768732 98.84576218 -32.33139779 93.64664794 -32.33021259 88.44745445 C-32.33000944 81.7962635 -32.35730922 75.14564969 -32.39175701 68.49453831 C-32.41403124 63.37031167 -32.41804996 58.24618781 -32.41699314 53.12191772 C-32.41934837 50.6703939 -32.42816745 48.21886722 -32.44365788 45.7673912 C-32.46332715 42.3329701 -32.45747518 38.89946957 -32.44544697 35.46503258 C-32.45668598 34.45953362 -32.467925 33.45403465 -32.47950459 32.41806602 C-32.39879202 23.31552018 -29.29871305 14.94854738 -22.95960712 8.25726891 C-15.77538659 2.48328425 -9.26434154 -0.05244913 0 0 Z M-11.89710712 22.00726891 C-15.9116053 28.33314481 -16.25522254 34.46045993 -16.23426533 41.72162437 C-16.23937626 42.6445327 -16.24448719 43.56744102 -16.249753 44.51831627 C-16.26359506 47.55376322 -16.26269621 50.58898174 -16.26038837 53.62445641 C-16.26427838 55.74523566 -16.26861368 57.86601413 -16.2733736 59.98679161 C-16.28082433 64.42674856 -16.28055292 68.86662598 -16.27528095 73.30658531 C-16.26948922 78.98126194 -16.28641593 84.65561188 -16.30962563 90.33023453 C-16.32439595 94.70899911 -16.32523014 99.08768563 -16.3221159 103.46647072 C-16.32262749 105.55793594 -16.3278347 107.64940571 -16.33792782 109.74084663 C-16.35033827 112.67215181 -16.34347278 115.60282839 -16.33192158 118.53412437 C-16.33956532 119.38844048 -16.34720905 120.24275658 -16.35508442 121.12296104 C-16.30211021 127.24043636 -15.63603631 133.90974589 -11.68469429 138.85185623 C-6.1119433 143.92526349 0.65399122 144.55722987 7.8731699 144.5117445 C9.01582783 144.51655422 9.01582783 144.51655422 10.18156976 144.5214611 C12.73093198 144.52975408 15.28005884 144.52383929 17.82942486 144.51796532 C19.67696415 144.52098632 21.52450218 144.52487554 23.37203801 144.52955788 C28.44677364 144.53985322 33.52143874 144.53765214 38.5961802 144.53337729 C44.07004419 144.53091286 49.54389108 144.53992071 55.01774883 144.54741478 C65.74075913 144.56017165 76.4637444 144.56195424 87.18676101 144.55961452 C95.90171882 144.55783231 104.61666903 144.5595789 113.33162594 144.56383896 C114.57144084 144.56443415 115.81125574 144.56502934 117.08864079 144.56564256 C119.60723447 144.5668543 122.12582815 144.56806843 124.64442183 144.56928494 C141.55789605 144.57707341 158.47136715 144.5809904 175.38484287 144.57696819 C176.04617519 144.57681182 176.70750751 144.57665544 177.3888802 144.57649433 C180.74072684 144.57568855 184.09257346 144.57484278 187.44442008 144.57398102 C188.44293981 144.57372439 188.44293981 144.57372439 189.46163165 144.57346258 C190.80779767 144.57311592 192.15396369 144.57276739 193.50012971 144.57241699 C214.44667288 144.56705974 235.39317396 144.57499056 256.33970928 144.59345055 C279.87698434 144.61416947 303.41423927 144.62486238 326.95152485 144.62087506 C339.41270024 144.61896141 351.87383726 144.62146654 364.33500576 144.6355896 C374.94320399 144.6474908 385.55134026 144.64892243 396.15953933 144.63679943 C401.57225545 144.63090193 406.98485816 144.62983545 412.3975668 144.64180183 C417.35326378 144.65263058 422.30875225 144.64959308 427.26443936 144.63554015 C429.0564375 144.63288493 430.84845183 144.63528557 432.64043413 144.64327601 C446.37690208 145.22714253 446.37690208 145.22714253 458.60248077 139.98236352 C464.20006504 133.97909629 464.33733151 126.51254089 464.31505108 118.79291344 C464.32016201 117.87000511 464.32527294 116.94709679 464.33053875 115.99622154 C464.34438081 112.96077459 464.34348196 109.92555608 464.34117413 106.89008141 C464.34506413 104.76930215 464.34939943 102.64852368 464.35415936 100.5277462 C464.36161008 96.08778925 464.36133868 91.64791183 464.3560667 87.2079525 C464.35027497 81.53327587 464.36720168 75.85892593 464.39041138 70.18430328 C464.4051817 65.8055387 464.40601589 61.42685218 464.40290165 57.04806709 C464.40341324 54.95660188 464.40862045 52.8651321 464.41871357 50.77369118 C464.43112402 47.842386 464.42425853 44.91170942 464.41270733 41.98041344 C464.42035107 41.12609734 464.4279948 40.27178123 464.43587017 39.39157677 C464.38289596 33.27410145 463.71682206 26.60479192 459.76548004 21.66268158 C454.19272905 16.58927432 447.42679453 15.95730794 440.20761585 16.00279331 C439.4458439 15.99958683 438.68407195 15.99638036 437.899216 15.99307671 C435.34985377 15.98478373 432.80072691 15.99069852 430.25136089 15.99657249 C428.40382161 15.99355149 426.55628357 15.98966227 424.70874774 15.98497993 C419.63401211 15.9746846 414.55934701 15.97688567 409.48460555 15.98116052 C404.01074156 15.98362495 398.53689467 15.9746171 393.06303692 15.96712303 C382.34002662 15.95436616 371.61704135 15.95258357 360.89402474 15.95492329 C352.17906693 15.9567055 343.46411672 15.95495891 334.74915981 15.95069885 C333.50934491 15.95010366 332.26953001 15.94950847 330.99214496 15.94889525 C328.47355128 15.94768351 325.9549576 15.94646938 323.43636392 15.94525287 C306.5228897 15.9374644 289.6094186 15.93354742 272.69594288 15.93756962 C271.7039444 15.93780418 271.7039444 15.93780418 270.69190555 15.93804348 C267.34005891 15.93884926 263.98821229 15.93969503 260.63636567 15.94055679 C259.97068585 15.94072787 259.30500604 15.94089896 258.6191541 15.94107523 C257.27298808 15.94142189 255.92682206 15.94177042 254.58065604 15.94212082 C233.63411287 15.94747807 212.68761179 15.93954725 191.74107647 15.92108727 C168.20380141 15.90036834 144.66654649 15.88967543 121.1292609 15.89366275 C108.66808552 15.8955764 96.20694849 15.89307127 83.74577999 15.87894821 C73.13758176 15.86704701 62.52944549 15.86561538 51.92124642 15.87773838 C46.5085303 15.88363588 41.09592759 15.88470236 35.68321896 15.87273598 C30.72752197 15.86190723 25.7720335 15.86494473 20.81634639 15.87899766 C19.02434825 15.88165288 17.23233392 15.87925224 15.44035162 15.8712618 C0.58466192 15.223182 0.58466192 15.223182 -11.89710712 22.00726891 Z " fill="#FFFFFF" transform="translate(31.959607124328613,-0.25726890563964844)"/>
<path d="M0 0 C1.02994835 -0.00935994 1.02994835 -0.00935994 2.08070374 -0.01890898 C4.38097496 -0.03486111 6.68018972 -0.02222711 8.98046875 -0.00964355 C10.62972634 -0.01506373 12.27897909 -0.0221858 13.92822266 -0.03088379 C18.40757091 -0.04913268 22.886551 -0.04204323 27.36590576 -0.02936745 C32.05123901 -0.01924786 36.73654052 -0.02863023 41.421875 -0.03491211 C49.29042222 -0.04219156 57.15881932 -0.03259303 65.02734375 -0.0135498 C74.12742646 0.00821953 83.22715071 0.00116837 92.32722473 -0.02085543 C100.13710094 -0.03900097 107.94686917 -0.0415719 115.75675964 -0.03110075 C120.42269772 -0.02486116 125.08846725 -0.02404295 129.75439453 -0.0372467 C134.14085692 -0.04879232 138.52685669 -0.0408033 142.91326904 -0.01766968 C144.52414176 -0.01237565 146.13505333 -0.01390823 147.74591064 -0.02272034 C149.94311376 -0.03363283 152.13882949 -0.01996683 154.3359375 0 C156.18094849 0.00226215 156.18094849 0.00226215 158.06323242 0.00457001 C161.74951554 0.60221956 162.92356627 1.58295559 165.16796875 4.50793457 C165.69921875 6.50793457 165.69921875 6.50793457 165.66796875 8.50793457 C165.6834375 9.49793457 165.6834375 9.49793457 165.69921875 10.50793457 C164.91138424 13.47389977 163.55732468 14.60472758 161.16796875 16.50793457 C158.06323242 17.01129913 158.06323242 17.01129913 154.3359375 17.01586914 C153.64930527 17.0221091 152.96267303 17.02834907 152.25523376 17.03477812 C149.95496254 17.05073025 147.65574778 17.03809625 145.35546875 17.0255127 C143.70621116 17.03093287 142.05695841 17.03805494 140.40771484 17.04675293 C135.92836659 17.06500182 131.4493865 17.05791237 126.97003174 17.04523659 C122.28469849 17.035117 117.59939698 17.04449937 112.9140625 17.05078125 C105.04551528 17.0580607 97.17711818 17.04846217 89.30859375 17.02941895 C80.20851104 17.00764961 71.10878679 17.01470078 62.00871277 17.03672457 C54.19883656 17.05487011 46.38906833 17.05744104 38.57917786 17.04696989 C33.91323978 17.0407303 29.24747025 17.03991209 24.58154297 17.05311584 C20.19508058 17.06466146 15.80908081 17.05667244 11.42266846 17.03353882 C9.81179574 17.02824479 8.20088417 17.02977737 6.59002686 17.03858948 C4.39282374 17.04950197 2.19710801 17.03583597 0 17.01586914 C-1.84501099 17.01360699 -1.84501099 17.01360699 -3.72729492 17.01129913 C-7.41357804 16.41364958 -8.58762877 15.43291355 -10.83203125 12.50793457 C-11.36328125 10.50793457 -11.36328125 10.50793457 -11.33203125 8.50793457 C-11.3475 7.51793457 -11.3475 7.51793457 -11.36328125 6.50793457 C-9.79278824 0.59549028 -5.4395476 0.00666939 0 0 Z " fill="#FFFFFF" transform="translate(66.83203125,423.4920654296875)"/>
<path d="M0 0 C1.02994835 -0.00935994 1.02994835 -0.00935994 2.08070374 -0.01890898 C4.38097496 -0.03486111 6.68018972 -0.02222711 8.98046875 -0.00964355 C10.62972634 -0.01506373 12.27897909 -0.0221858 13.92822266 -0.03088379 C18.40757091 -0.04913268 22.886551 -0.04204323 27.36590576 -0.02936745 C32.05123901 -0.01924786 36.73654052 -0.02863023 41.421875 -0.03491211 C49.29042222 -0.04219156 57.15881932 -0.03259303 65.02734375 -0.0135498 C74.12742646 0.00821953 83.22715071 0.00116837 92.32722473 -0.02085543 C100.13710094 -0.03900097 107.94686917 -0.0415719 115.75675964 -0.03110075 C120.42269772 -0.02486116 125.08846725 -0.02404295 129.75439453 -0.0372467 C134.14085692 -0.04879232 138.52685669 -0.0408033 142.91326904 -0.01766968 C144.52414176 -0.01237565 146.13505333 -0.01390823 147.74591064 -0.02272034 C149.94311376 -0.03363283 152.13882949 -0.01996683 154.3359375 0 C156.18094849 0.00226215 156.18094849 0.00226215 158.06323242 0.00457001 C161.74951554 0.60221956 162.92356627 1.58295559 165.16796875 4.50793457 C165.69921875 6.50793457 165.69921875 6.50793457 165.66796875 8.50793457 C165.6834375 9.49793457 165.6834375 9.49793457 165.69921875 10.50793457 C164.91138424 13.47389977 163.55732468 14.60472758 161.16796875 16.50793457 C158.06323242 17.01129913 158.06323242 17.01129913 154.3359375 17.01586914 C153.64930527 17.0221091 152.96267303 17.02834907 152.25523376 17.03477812 C149.95496254 17.05073025 147.65574778 17.03809625 145.35546875 17.0255127 C143.70621116 17.03093287 142.05695841 17.03805494 140.40771484 17.04675293 C135.92836659 17.06500182 131.4493865 17.05791237 126.97003174 17.04523659 C122.28469849 17.035117 117.59939698 17.04449937 112.9140625 17.05078125 C105.04551528 17.0580607 97.17711818 17.04846217 89.30859375 17.02941895 C80.20851104 17.00764961 71.10878679 17.01470078 62.00871277 17.03672457 C54.19883656 17.05487011 46.38906833 17.05744104 38.57917786 17.04696989 C33.91323978 17.0407303 29.24747025 17.03991209 24.58154297 17.05311584 C20.19508058 17.06466146 15.80908081 17.05667244 11.42266846 17.03353882 C9.81179574 17.02824479 8.20088417 17.02977737 6.59002686 17.03858948 C4.39282374 17.04950197 2.19710801 17.03583597 0 17.01586914 C-1.84501099 17.01360699 -1.84501099 17.01360699 -3.72729492 17.01129913 C-7.41357804 16.41364958 -8.58762877 15.43291355 -10.83203125 12.50793457 C-11.36328125 10.50793457 -11.36328125 10.50793457 -11.33203125 8.50793457 C-11.3475 7.51793457 -11.3475 7.51793457 -11.36328125 6.50793457 C-9.79278824 0.59549028 -5.4395476 0.00666939 0 0 Z " fill="#FFFFFF" transform="translate(66.83203125,247.4920654296875)"/>
<path d="M0 0 C1.02994835 -0.00935994 1.02994835 -0.00935994 2.08070374 -0.01890898 C4.38097496 -0.03486111 6.68018972 -0.02222711 8.98046875 -0.00964355 C10.62972634 -0.01506373 12.27897909 -0.0221858 13.92822266 -0.03088379 C18.40757091 -0.04913268 22.886551 -0.04204323 27.36590576 -0.02936745 C32.05123901 -0.01924786 36.73654052 -0.02863023 41.421875 -0.03491211 C49.29042222 -0.04219156 57.15881932 -0.03259303 65.02734375 -0.0135498 C74.12742646 0.00821953 83.22715071 0.00116837 92.32722473 -0.02085543 C100.13710094 -0.03900097 107.94686917 -0.0415719 115.75675964 -0.03110075 C120.42269772 -0.02486116 125.08846725 -0.02404295 129.75439453 -0.0372467 C134.14085692 -0.04879232 138.52685669 -0.0408033 142.91326904 -0.01766968 C144.52414176 -0.01237565 146.13505333 -0.01390823 147.74591064 -0.02272034 C149.94311376 -0.03363283 152.13882949 -0.01996683 154.3359375 0 C156.18094849 0.00226215 156.18094849 0.00226215 158.06323242 0.00457001 C161.74951554 0.60221956 162.92356627 1.58295559 165.16796875 4.50793457 C165.69921875 6.50793457 165.69921875 6.50793457 165.66796875 8.50793457 C165.6834375 9.49793457 165.6834375 9.49793457 165.69921875 10.50793457 C164.91138424 13.47389977 163.55732468 14.60472758 161.16796875 16.50793457 C158.06323242 17.01129913 158.06323242 17.01129913 154.3359375 17.01586914 C153.64930527 17.0221091 152.96267303 17.02834907 152.25523376 17.03477812 C149.95496254 17.05073025 147.65574778 17.03809625 145.35546875 17.0255127 C143.70621116 17.03093287 142.05695841 17.03805494 140.40771484 17.04675293 C135.92836659 17.06500182 131.4493865 17.05791237 126.97003174 17.04523659 C122.28469849 17.035117 117.59939698 17.04449937 112.9140625 17.05078125 C105.04551528 17.0580607 97.17711818 17.04846217 89.30859375 17.02941895 C80.20851104 17.00764961 71.10878679 17.01470078 62.00871277 17.03672457 C54.19883656 17.05487011 46.38906833 17.05744104 38.57917786 17.04696989 C33.91323978 17.0407303 29.24747025 17.03991209 24.58154297 17.05311584 C20.19508058 17.06466146 15.80908081 17.05667244 11.42266846 17.03353882 C9.81179574 17.02824479 8.20088417 17.02977737 6.59002686 17.03858948 C4.39282374 17.04950197 2.19710801 17.03583597 0 17.01586914 C-1.84501099 17.01360699 -1.84501099 17.01360699 -3.72729492 17.01129913 C-7.41357804 16.41364958 -8.58762877 15.43291355 -10.83203125 12.50793457 C-11.36328125 10.50793457 -11.36328125 10.50793457 -11.33203125 8.50793457 C-11.3475 7.51793457 -11.3475 7.51793457 -11.36328125 6.50793457 C-9.79278824 0.59549028 -5.4395476 0.00666939 0 0 Z " fill="#FFFFFF" transform="translate(66.83203125,71.4920654296875)"/>
<path d="M0 0 C5.82485779 3.51996782 10.54466582 8.98962934 12.5625 15.5 C13.36764105 23.33608208 13.68710392 31.11922577 8.5625 37.5 C3.75801361 42.54521222 -0.59927055 46.10562995 -7.70703125 46.8359375 C-16.22326573 46.92983204 -22.11345494 46.6177288 -28.40234375 40.62890625 C-34.7841668 33.72505269 -35.91792252 28.29832071 -35.7421875 18.9453125 C-35.04689797 11.08319245 -31.38995981 6.95041296 -25.53515625 1.9453125 C-18.47077988 -2.92213491 -7.84396301 -3.47595223 0 0 Z " fill="#FFFFFF" transform="translate(435.4375,409.5)"/>
<path d="M0 0 C5.82485779 3.51996782 10.54466582 8.98962934 12.5625 15.5 C13.36764105 23.33608208 13.68710392 31.11922577 8.5625 37.5 C3.75801361 42.54521222 -0.59927055 46.10562995 -7.70703125 46.8359375 C-16.22326573 46.92983204 -22.11345494 46.6177288 -28.40234375 40.62890625 C-34.7841668 33.72505269 -35.91792252 28.29832071 -35.7421875 18.9453125 C-35.04689797 11.08319245 -31.38995981 6.95041296 -25.53515625 1.9453125 C-18.47077988 -2.92213491 -7.84396301 -3.47595223 0 0 Z " fill="#FFFFFF" transform="translate(435.4375,233.5)"/>
<path d="M0 0 C5.82485779 3.51996782 10.54466582 8.98962934 12.5625 15.5 C13.36764105 23.33608208 13.68710392 31.11922577 8.5625 37.5 C3.75801361 42.54521222 -0.59927055 46.10562995 -7.70703125 46.8359375 C-16.22326573 46.92983204 -22.11345494 46.6177288 -28.40234375 40.62890625 C-34.7841668 33.72505269 -35.91792252 28.29832071 -35.7421875 18.9453125 C-35.04689797 11.08319245 -31.38995981 6.95041296 -25.53515625 1.9453125 C-18.47077988 -2.92213491 -7.84396301 -3.47595223 0 0 Z " fill="#FFFFFF" transform="translate(435.4375,57.5)"/>
</svg>
